# xmcd CD database file
#
# Track frame offsets:
#	150
#	6600
#	27000
#	48750
#	73800
#	96075
#	115800
#	134475
#	154125
#	173925
#	192000
#	208200
#	225675
#
# Disc length: 3381 seconds
#
# Revision: 1
# Processed by: cddbd v1.5.1PL2 Copyright (c) Steve Scherf et al.
# Submitted via: freeDBTagger 0.8.1.0
#
DISCID=b30d330d
DTITLE=DREAMS COME TRUE - THE LOVE ROCKS
DYEAR=2006
DGENRE=misc
TTITLE0=01. 摂、ャROCK、ケ、・ニゥ`・゛
TTITLE1=01. 摂、ャROCK、ケ、・ニゥ`・゛
TTITLE2=01. 摂、ャROCK、ケ、・ニゥ`・゛
TTITLE3=01. 摂、ャROCK、ケ、・ニゥ`・゛
TTITLE4=01. 摂、ャROCK、ケ、・ニゥ`・゛
TTITLE5=01. 摂、ャROCK、ケ、・ニゥ`・゛
TTITLE6=01. 摂、ャROCK、ケ、・ニゥ`・゛
TTITLE7=01. 摂、ャROCK、ケ、・ニゥ`・゛
TTITLE8=01. 摂、ャROCK、ケ、・ニゥ`・゛
TTITLE9=01. 摂、ャROCK、ケ、・ニゥ`・゛
TTITLE10=01. 摂、ャROCK、ケ、・ニゥ`・゛
TTITLE11=01. 摂、ャROCK、ケ、・ニゥ`・゛
TTITLE12=01. 摂、ャROCK、ケ、・ニゥ`・゛
EXTD=
EXTT0=
EXTT1=
EXTT2=
EXTT3=
EXTT4=
EXTT5=
EXTT6=
EXTT7=
EXTT8=
EXTT9=
EXTT10=
EXTT11=
EXTT12=
PLAYORDER=
